<svg id="Layer_2" height="512" viewBox="0 0 128 128" width="512" xmlns="http://www.w3.org/2000/svg" data-name="Layer 2"><path d="m126.521 71.392-13.63-2.134a43.194 43.194 0 0 0 -22.06 2.315l-12.631 4.827-5.615-2.51a43.164 43.164 0 0 0 -36.821.8l.077-29.6a11.8 11.8 0 0 0 8.819-6.423l2.264 1.164a6.816 6.816 0 0 0 8.576-1.944l8.422-11.147a6.718 6.718 0 0 0 -1.9-9.812l-16.022-9.687a1.75 1.75 0 0 0 -1.882.045l-25.826 17.366a1.751 1.751 0 0 0 -.722 1.029l-17.27 69.353a10.286 10.286 0 0 0 5.2 11.574 1.752 1.752 0 0 0 .683.2l7.145.564.626.414a67.757 67.757 0 0 0 56.2 8.569l6-1.727 6.129 2.244a68.231 68.231 0 0 0 44.521.762 1.751 1.751 0 0 0 1.196-1.663v-42.85a1.75 1.75 0 0 0 -1.479-1.729zm-43.043 42.193-6.665-2.44a1.748 1.748 0 0 0 -1.086-.039l-6.547 1.885a64.257 64.257 0 0 1 -53.3-8.125l-1-.663a1.748 1.748 0 0 0 -.827-.285l-7.212-.57a6.786 6.786 0 0 1 -3.141-7.469l17.1-68.7 24.341-16.365 15.067 9.109a3.215 3.215 0 0 1 1.517 2.165 3.176 3.176 0 0 1 -.595 2.542l-8.422 11.146a3.326 3.326 0 0 1 -4.184.942l-3.861-1.986a1.75 1.75 0 0 0 -2.377.8l-.743 1.546a8.292 8.292 0 0 1 -7.443 4.643 1.75 1.75 0 0 0 -1.75 1.746l-.089 34.167a1.75 1.75 0 0 0 2.64 1.511 39.646 39.646 0 0 1 36.263-2.058l6.276 2.8a1.752 1.752 0 0 0 1.337.037l13.307-5.08a39.706 39.706 0 0 1 20.271-2.126l12.15 1.9v5.4l-9.679-1.377a41.66 41.66 0 0 0 -20.308 2.184l-2.206.819a1.75 1.75 0 1 0 1.219 3.281l2.206-.819a38.144 38.144 0 0 1 18.6-2l10.163 1.451v31.133a64.743 64.743 0 0 1 -41.022-1.105z"/><path d="m57.559 104.893a48.621 48.621 0 0 1 -27.568-4.231 1.75 1.75 0 0 0 -1.65 3.086 51.52 51.52 0 0 0 22.442 5.173 46.72 46.72 0 0 0 7.325-.571 1.75 1.75 0 0 0 -.549-3.457z"/></svg>